# xmcd CD database file
#
# Track frame offsets:
#	182
#	11427
#	29182
#	43612
#	60407
#	78995
#	97455
#	115707
#	128835
#	142140
#	160517
#	180222
#	199177
#	216900
#	235232
#	254080
#	271927
#	290572
#	304222
#	317102
#	330997
#
# Disc length: 4586 seconds
#
# Revision: 0
# Processed by: cddbd v1.5.2PL0 Copyright (c) Steve Scherf et al.
# Submitted via: CDex 1.70beta2
#
DISCID=3411e815
DTITLE=Sidney Bechet - St. Louis Blues 1940
DYEAR=1991
DGENRE=Blues
TTITLE0=St. Louis Blues
TTITLE1=Indian Summer
TTITLE2=Preachin' Blues
TTITLE3=Careless Love
TTITLE4=Milk Cow Blues
TTITLE5=Lonesome Blues
TTITLE6=Dear Old Southland
TTITLE7=Bechet's Steady Rider
TTITLE8=Saturday Night Blues
TTITLE9=Four or Five Times
TTITLE10=Sweet Lorraine
TTITLE11=Lazy River
TTITLE12=China Boy
TTITLE13=If I Could Be With You
TTITLE14=That's a Plenty
TTITLE15=Squeeze Me
TTITLE16=Sweet Sue, Just You
TTITLE17=Perdido Street Blues
TTITLE18=2:19 Blues
TTITLE19=Down in Honky Tonk Town
TTITLE20=Coal Cart Blues
EXTD=YEAR: 1991
EXTT0=
EXTT1=
EXTT2=
EXTT3=
EXTT4=
EXTT5=
EXTT6=
EXTT7=
EXTT8=
EXTT9=
EXTT10=
EXTT11=
EXTT12=
EXTT13=
EXTT14=
EXTT15=
EXTT16=
EXTT17=
EXTT18=
EXTT19=
EXTT20=
PLAYORDER=
